<mxfile host="app.diagrams.net" modified="2023-05-28T07:04:42.025Z" agent="Mozilla/5.0 (Windows NT 10.0; Win64; x64) AppleWebKit/537.36 (KHTML, like Gecko) Chrome/113.0.0.0 Safari/537.36 Edg/113.0.1774.57" etag="Kb_s2pxuYdKdKnQD_U_Y" version="21.3.4" type="device">
  <diagram id="R2lEEEUBdFMjLlhIrx00" name="Page-1">
    <mxGraphModel dx="2523" dy="1302" grid="1" gridSize="10" guides="1" tooltips="1" connect="1" arrows="1" fold="1" page="1" pageScale="1" pageWidth="827" pageHeight="1169" math="0" shadow="0" extFonts="Permanent Marker^https://fonts.googleapis.com/css?family=Permanent+Marker">
      <root>
        <mxCell id="0" />
        <mxCell id="1" parent="0" />
        <mxCell id="f_9CFisA3Khybv1ZAlu0-52" value="enigma_jhu" style="swimlane;childLayout=stackLayout;horizontal=1;startSize=50;horizontalStack=0;rounded=1;fontSize=14;fontStyle=0;strokeWidth=2;resizeParent=0;resizeLast=1;shadow=0;dashed=0;align=center;arcSize=4;whiteSpace=wrap;html=1;" parent="1" vertex="1">
          <mxGeometry x="-900" y="530" width="170" height="270" as="geometry">
            <mxRectangle x="-1180" y="10" width="110" height="50" as="alternateBounds" />
          </mxGeometry>
        </mxCell>
        <mxCell id="f_9CFisA3Khybv1ZAlu0-53" value="&lt;div style=&quot;font-size: 14px;&quot;&gt;&lt;font style=&quot;font-size: 14px;&quot;&gt;&amp;nbsp; `&lt;b&gt;fips&lt;/b&gt;` bigint&lt;/font&gt;&lt;/div&gt;&lt;div style=&quot;font-size: 14px;&quot;&gt;&lt;font style=&quot;font-size: 14px;&quot;&gt;&amp;nbsp; `admin2` string&lt;span style=&quot;background-color: initial;&quot;&gt;&amp;nbsp;&lt;/span&gt;&lt;/font&gt;&lt;/div&gt;&lt;div style=&quot;font-size: 14px;&quot;&gt;&lt;font style=&quot;font-size: 14px;&quot;&gt;&amp;nbsp; `province_state` string&amp;nbsp;&lt;/font&gt;&lt;/div&gt;&lt;div style=&quot;font-size: 14px;&quot;&gt;&lt;font style=&quot;font-size: 14px;&quot;&gt;&amp;nbsp; `&lt;b&gt;country_region&lt;/b&gt;` string&amp;nbsp;&lt;/font&gt;&lt;/div&gt;&lt;div style=&quot;font-size: 14px;&quot;&gt;&lt;font style=&quot;font-size: 14px;&quot;&gt;&amp;nbsp; `last_update` string&lt;/font&gt;&lt;/div&gt;&lt;div style=&quot;font-size: 14px;&quot;&gt;&lt;font style=&quot;font-size: 14px;&quot;&gt;&amp;nbsp; `latitude` double&lt;/font&gt;&lt;/div&gt;&lt;div style=&quot;font-size: 14px;&quot;&gt;&lt;font style=&quot;font-size: 14px;&quot;&gt;&amp;nbsp; `longitude` double&amp;nbsp;&lt;/font&gt;&lt;/div&gt;&lt;div style=&quot;font-size: 14px;&quot;&gt;&lt;font style=&quot;font-size: 14px;&quot;&gt;&amp;nbsp; `confirmed` bigint&amp;nbsp;&lt;/font&gt;&lt;/div&gt;&lt;div style=&quot;font-size: 14px;&quot;&gt;&lt;font style=&quot;font-size: 14px;&quot;&gt;&amp;nbsp; `deaths` bigint&amp;nbsp;&lt;/font&gt;&lt;/div&gt;&lt;div style=&quot;font-size: 14px;&quot;&gt;&lt;font style=&quot;font-size: 14px;&quot;&gt;&amp;nbsp; `recovered` bigint&amp;nbsp;&lt;/font&gt;&lt;/div&gt;&lt;div style=&quot;font-size: 14px;&quot;&gt;&lt;font style=&quot;font-size: 14px;&quot;&gt;&amp;nbsp; `active` string&amp;nbsp;&lt;/font&gt;&lt;/div&gt;&lt;div style=&quot;font-size: 14px;&quot;&gt;&lt;font style=&quot;font-size: 14px;&quot;&gt;&amp;nbsp; `combined_key` string&lt;/font&gt;&lt;/div&gt;" style="align=left;strokeColor=none;fillColor=none;spacingLeft=4;fontSize=12;verticalAlign=top;resizable=0;rotatable=0;part=1;html=1;" parent="f_9CFisA3Khybv1ZAlu0-52" vertex="1">
          <mxGeometry y="50" width="170" height="220" as="geometry" />
        </mxCell>
        <mxCell id="f_9CFisA3Khybv1ZAlu0-56" value="enigma_nyt_usa_states" style="swimlane;childLayout=stackLayout;horizontal=1;startSize=50;horizontalStack=0;rounded=1;fontSize=14;fontStyle=0;strokeWidth=2;resizeParent=0;resizeLast=1;shadow=0;dashed=0;align=center;arcSize=4;whiteSpace=wrap;html=1;" parent="1" vertex="1">
          <mxGeometry x="-930" y="10" width="190" height="160" as="geometry">
            <mxRectangle x="-1180" y="10" width="110" height="50" as="alternateBounds" />
          </mxGeometry>
        </mxCell>
        <mxCell id="f_9CFisA3Khybv1ZAlu0-57" value="&lt;div style=&quot;font-size: 14px;&quot;&gt;&lt;font style=&quot;font-size: 14px;&quot;&gt;&amp;nbsp; `date` string&lt;/font&gt;&lt;/div&gt;&lt;div style=&quot;font-size: 14px;&quot;&gt;&lt;font style=&quot;font-size: 14px;&quot;&gt;&amp;nbsp; `&lt;b&gt;state&lt;/b&gt;` string&lt;span style=&quot;background-color: initial;&quot;&gt;&amp;nbsp;&lt;/span&gt;&lt;/font&gt;&lt;/div&gt;&lt;div style=&quot;font-size: 14px;&quot;&gt;&lt;font style=&quot;font-size: 14px;&quot;&gt;&amp;nbsp; `&lt;b&gt;fips&lt;/b&gt;` string,&amp;nbsp;&lt;/font&gt;&lt;/div&gt;&lt;div style=&quot;font-size: 14px;&quot;&gt;&lt;font style=&quot;font-size: 14px;&quot;&gt;&amp;nbsp; `cases` string,&amp;nbsp;&lt;/font&gt;&lt;/div&gt;&lt;div style=&quot;font-size: 14px;&quot;&gt;&lt;font style=&quot;font-size: 14px;&quot;&gt;&amp;nbsp; `deaths` string&lt;/font&gt;&lt;/div&gt;" style="align=left;strokeColor=none;fillColor=none;spacingLeft=4;fontSize=12;verticalAlign=top;resizable=0;rotatable=0;part=1;html=1;" parent="f_9CFisA3Khybv1ZAlu0-56" vertex="1">
          <mxGeometry y="50" width="190" height="110" as="geometry" />
        </mxCell>
        <mxCell id="f_9CFisA3Khybv1ZAlu0-60" value="enigma_nyt_usa_counties" style="swimlane;childLayout=stackLayout;horizontal=1;startSize=50;horizontalStack=0;rounded=1;fontSize=14;fontStyle=0;strokeWidth=2;resizeParent=0;resizeLast=1;shadow=0;dashed=0;align=center;arcSize=4;whiteSpace=wrap;html=1;" parent="1" vertex="1">
          <mxGeometry x="-920" y="240" width="170" height="160" as="geometry">
            <mxRectangle x="-1180" y="10" width="110" height="50" as="alternateBounds" />
          </mxGeometry>
        </mxCell>
        <mxCell id="f_9CFisA3Khybv1ZAlu0-61" value="&lt;div style=&quot;font-size: 14px;&quot;&gt;&lt;font style=&quot;font-size: 14px;&quot;&gt;&amp;nbsp; `date` string&lt;/font&gt;&lt;/div&gt;&lt;div style=&quot;font-size: 14px;&quot;&gt;&lt;font style=&quot;font-size: 14px;&quot;&gt;&amp;nbsp; &amp;nbsp;&#39;&lt;b&gt;county&lt;/b&gt;&#39; string&lt;/font&gt;&lt;/div&gt;&lt;div style=&quot;font-size: 14px;&quot;&gt;&lt;font style=&quot;font-size: 14px;&quot;&gt;&amp;nbsp; `state` string&lt;span style=&quot;background-color: initial;&quot;&gt;&amp;nbsp;&lt;/span&gt;&lt;/font&gt;&lt;/div&gt;&lt;div style=&quot;font-size: 14px;&quot;&gt;&lt;font style=&quot;font-size: 14px;&quot;&gt;&amp;nbsp; `&lt;b&gt;fips&lt;/b&gt;` string,&amp;nbsp;&lt;/font&gt;&lt;/div&gt;&lt;div style=&quot;font-size: 14px;&quot;&gt;&lt;font style=&quot;font-size: 14px;&quot;&gt;&amp;nbsp; `cases` string,&amp;nbsp;&lt;/font&gt;&lt;/div&gt;&lt;div style=&quot;font-size: 14px;&quot;&gt;&lt;font style=&quot;font-size: 14px;&quot;&gt;&amp;nbsp; `deaths` string&lt;/font&gt;&lt;/div&gt;" style="align=left;strokeColor=none;fillColor=none;spacingLeft=4;fontSize=12;verticalAlign=top;resizable=0;rotatable=0;part=1;html=1;" parent="f_9CFisA3Khybv1ZAlu0-60" vertex="1">
          <mxGeometry y="50" width="170" height="110" as="geometry" />
        </mxCell>
        <mxCell id="f_9CFisA3Khybv1ZAlu0-72" value="rearc_states_daily_test" style="swimlane;childLayout=stackLayout;horizontal=1;startSize=50;horizontalStack=0;rounded=1;fontSize=14;fontStyle=0;strokeWidth=2;resizeParent=0;resizeLast=1;shadow=0;dashed=0;align=center;arcSize=4;whiteSpace=wrap;html=1;" parent="1" vertex="1">
          <mxGeometry x="-670" y="10" width="240" height="1010" as="geometry">
            <mxRectangle x="-1180" y="10" width="110" height="50" as="alternateBounds" />
          </mxGeometry>
        </mxCell>
        <mxCell id="f_9CFisA3Khybv1ZAlu0-73" value="&lt;div style=&quot;&quot;&gt;&lt;div style=&quot;&quot;&gt;&lt;font style=&quot;font-size: 14px;&quot;&gt;`date` bigint&lt;/font&gt;&lt;span style=&quot;font-size: 13px;&quot;&gt;&amp;nbsp;&lt;/span&gt;&lt;/div&gt;&lt;div style=&quot;&quot;&gt;&lt;span style=&quot;font-size: 14px;&quot;&gt;`&lt;b&gt;state&lt;/b&gt;` string&amp;nbsp;&lt;/span&gt;&lt;/div&gt;&lt;div style=&quot;&quot;&gt;&lt;span style=&quot;font-size: 14px;&quot;&gt;`positive` bigint&amp;nbsp;&lt;/span&gt;&lt;/div&gt;&lt;div style=&quot;&quot;&gt;&lt;span style=&quot;font-size: 14px;&quot;&gt;`probablecases` bigint&amp;nbsp;&lt;/span&gt;&lt;/div&gt;&lt;div style=&quot;&quot;&gt;&lt;span style=&quot;font-size: 14px;&quot;&gt;`negative` bigint&amp;nbsp;&lt;/span&gt;&lt;/div&gt;&lt;div style=&quot;&quot;&gt;&lt;span style=&quot;font-size: 14px;&quot;&gt;`pending` bigint&amp;nbsp;&lt;/span&gt;&lt;/div&gt;&lt;div style=&quot;&quot;&gt;&lt;span style=&quot;font-size: 14px;&quot;&gt;`totaltestresultssource` string&amp;nbsp;&lt;/span&gt;&lt;/div&gt;&lt;div style=&quot;&quot;&gt;&lt;span style=&quot;font-size: 14px;&quot;&gt;`totaltestresults` bigint&amp;nbsp;&lt;/span&gt;&lt;/div&gt;&lt;div style=&quot;&quot;&gt;&lt;span style=&quot;font-size: 14px;&quot;&gt;`hospitalizedcurrently` bigint&amp;nbsp;&lt;/span&gt;&lt;/div&gt;&lt;div style=&quot;&quot;&gt;&lt;span style=&quot;font-size: 14px;&quot;&gt;`hospitalizedcumulative` bigint&amp;nbsp;&lt;/span&gt;&lt;/div&gt;&lt;div style=&quot;&quot;&gt;&lt;span style=&quot;font-size: 14px;&quot;&gt;`inicucurrently` bigint&amp;nbsp;&lt;/span&gt;&lt;/div&gt;&lt;div style=&quot;&quot;&gt;&lt;span style=&quot;font-size: 14px;&quot;&gt;`inicucumulative` bigint&amp;nbsp;&lt;/span&gt;&lt;/div&gt;&lt;div style=&quot;&quot;&gt;&lt;span style=&quot;font-size: 14px;&quot;&gt;`onventilatorcurrently` bigint&amp;nbsp;&lt;/span&gt;&lt;/div&gt;&lt;div style=&quot;&quot;&gt;&lt;span style=&quot;font-size: 14px;&quot;&gt;`onventilatorcumulative` bigint&amp;nbsp;&lt;/span&gt;&lt;/div&gt;&lt;div style=&quot;&quot;&gt;&lt;span style=&quot;font-size: 14px;&quot;&gt;`recovered` bigint&amp;nbsp;&lt;/span&gt;&lt;/div&gt;&lt;div style=&quot;&quot;&gt;&lt;span style=&quot;font-size: 14px;&quot;&gt;`lastupdateet` string&amp;nbsp;&lt;/span&gt;&lt;/div&gt;&lt;div style=&quot;&quot;&gt;&lt;span style=&quot;font-size: 14px;&quot;&gt;`datemodified` string&amp;nbsp;&lt;/span&gt;&lt;/div&gt;&lt;div style=&quot;&quot;&gt;&lt;span style=&quot;font-size: 14px;&quot;&gt;`checktimeet` string&amp;nbsp;&lt;/span&gt;&lt;/div&gt;&lt;div style=&quot;&quot;&gt;&lt;span style=&quot;font-size: 14px;&quot;&gt;`death` bigint&amp;nbsp;&lt;/span&gt;&lt;/div&gt;&lt;div style=&quot;&quot;&gt;&lt;span style=&quot;font-size: 14px;&quot;&gt;`hospitalized` bigint&amp;nbsp;&lt;/span&gt;&lt;/div&gt;&lt;div style=&quot;&quot;&gt;&lt;span style=&quot;font-size: 14px;&quot;&gt;`hospitalizeddischarged` bigint&amp;nbsp;&lt;/span&gt;&lt;/div&gt;&lt;div style=&quot;&quot;&gt;&lt;span style=&quot;font-size: 14px;&quot;&gt;`datechecked` string&amp;nbsp;&lt;/span&gt;&lt;/div&gt;&lt;div style=&quot;&quot;&gt;&lt;span style=&quot;font-size: 14px;&quot;&gt;`totaltestsviral` bigint&amp;nbsp;&lt;/span&gt;&lt;/div&gt;&lt;div style=&quot;&quot;&gt;&lt;span style=&quot;font-size: 14px;&quot;&gt;`positivetestsviral` bigint&amp;nbsp;&lt;/span&gt;&lt;/div&gt;&lt;div style=&quot;&quot;&gt;&lt;span style=&quot;font-size: 14px;&quot;&gt;`negativetestsviral` bigint&amp;nbsp;&lt;/span&gt;&lt;/div&gt;&lt;div style=&quot;&quot;&gt;&lt;span style=&quot;font-size: 14px;&quot;&gt;`positivecasesviral` bigint&amp;nbsp;&lt;/span&gt;&lt;/div&gt;&lt;div style=&quot;&quot;&gt;&lt;span style=&quot;font-size: 14px;&quot;&gt;`deathconfirmed` bigint&amp;nbsp;&lt;/span&gt;&lt;/div&gt;&lt;div style=&quot;&quot;&gt;&lt;span style=&quot;font-size: 14px;&quot;&gt;`deathprobable` bigint&amp;nbsp;&lt;/span&gt;&lt;/div&gt;&lt;div style=&quot;&quot;&gt;&lt;span style=&quot;font-size: 14px;&quot;&gt;`totaltestencountersviral` bigint&amp;nbsp;&lt;/span&gt;&lt;/div&gt;&lt;div style=&quot;&quot;&gt;&lt;span style=&quot;font-size: 14px;&quot;&gt;`totaltestspeopleviral` bigint&amp;nbsp;&lt;/span&gt;&lt;/div&gt;&lt;div style=&quot;&quot;&gt;&lt;span style=&quot;font-size: 14px;&quot;&gt;`totaltestsantibody` bigint&amp;nbsp;&lt;/span&gt;&lt;/div&gt;&lt;div style=&quot;&quot;&gt;&lt;span style=&quot;font-size: 14px;&quot;&gt;`positivetestsantibody` bigint&amp;nbsp;&lt;/span&gt;&lt;/div&gt;&lt;div style=&quot;&quot;&gt;&lt;span style=&quot;font-size: 14px;&quot;&gt;`negativetestsantibody` bigint&amp;nbsp;&lt;/span&gt;&lt;/div&gt;&lt;div style=&quot;&quot;&gt;&lt;span style=&quot;font-size: 14px;&quot;&gt;`totaltestspeopleantibody` bigint&amp;nbsp;&lt;/span&gt;&lt;/div&gt;&lt;div style=&quot;&quot;&gt;&lt;span style=&quot;font-size: 14px;&quot;&gt;`positivetestspeopleantibody` bigint&amp;nbsp;&lt;/span&gt;&lt;/div&gt;&lt;div style=&quot;&quot;&gt;&lt;span style=&quot;font-size: 14px;&quot;&gt;`negativetestspeopleantibody` bigint&amp;nbsp;&lt;/span&gt;&lt;/div&gt;&lt;div style=&quot;&quot;&gt;&lt;span style=&quot;font-size: 14px;&quot;&gt;`totaltestspeopleantigen` bigint&amp;nbsp;&lt;/span&gt;&lt;/div&gt;&lt;div style=&quot;&quot;&gt;&lt;span style=&quot;font-size: 14px;&quot;&gt;`positivetestspeopleantigen` bigint&amp;nbsp;&lt;/span&gt;&lt;/div&gt;&lt;div style=&quot;&quot;&gt;&lt;span style=&quot;font-size: 14px;&quot;&gt;`totaltestsantigen` bigint&amp;nbsp;&lt;/span&gt;&lt;/div&gt;&lt;div style=&quot;&quot;&gt;&lt;span style=&quot;font-size: 14px;&quot;&gt;`positivetestsantigen` bigint&amp;nbsp;&lt;/span&gt;&lt;/div&gt;&lt;div style=&quot;&quot;&gt;&lt;span style=&quot;font-size: 14px;&quot;&gt;`&lt;b&gt;fips&lt;/b&gt;` bigint&amp;nbsp;&lt;/span&gt;&lt;/div&gt;&lt;div style=&quot;&quot;&gt;&lt;span style=&quot;font-size: 14px;&quot;&gt;`positiveincrease` bigint&amp;nbsp;&lt;/span&gt;&lt;/div&gt;&lt;div style=&quot;&quot;&gt;&lt;span style=&quot;font-size: 14px;&quot;&gt;`negativeincrease` bigint&amp;nbsp;&lt;/span&gt;&lt;/div&gt;&lt;div style=&quot;&quot;&gt;&lt;span style=&quot;font-size: 14px;&quot;&gt;`total` bigint&amp;nbsp;&lt;/span&gt;&lt;/div&gt;&lt;div style=&quot;&quot;&gt;&lt;span style=&quot;font-size: 14px;&quot;&gt;`totaltestresultsincrease` bigint&amp;nbsp;&lt;/span&gt;&lt;/div&gt;&lt;div style=&quot;&quot;&gt;&lt;span style=&quot;font-size: 14px;&quot;&gt;`posneg` bigint&amp;nbsp;&lt;/span&gt;&lt;/div&gt;&lt;div style=&quot;&quot;&gt;&lt;span style=&quot;font-size: 14px;&quot;&gt;`dataqualitygrade` string&amp;nbsp;&lt;/span&gt;&lt;/div&gt;&lt;div style=&quot;&quot;&gt;&lt;span style=&quot;font-size: 14px;&quot;&gt;`deathincrease` bigint&amp;nbsp;&lt;/span&gt;&lt;/div&gt;&lt;div style=&quot;&quot;&gt;&lt;span style=&quot;font-size: 14px;&quot;&gt;`hospitalizedincrease` bigint&amp;nbsp;&lt;/span&gt;&lt;/div&gt;&lt;div style=&quot;&quot;&gt;&lt;span style=&quot;font-size: 14px;&quot;&gt;`hash` string&amp;nbsp;&lt;/span&gt;&lt;/div&gt;&lt;div style=&quot;&quot;&gt;&lt;span style=&quot;font-size: 14px;&quot;&gt;`commercialscore` bigint&amp;nbsp;&lt;/span&gt;&lt;/div&gt;&lt;div style=&quot;&quot;&gt;&lt;span style=&quot;font-size: 14px;&quot;&gt;`negativeregularscore` bigint&amp;nbsp;&lt;/span&gt;&lt;/div&gt;&lt;div style=&quot;&quot;&gt;&lt;span style=&quot;font-size: 14px;&quot;&gt;`negativescore` bigint&amp;nbsp;&lt;/span&gt;&lt;/div&gt;&lt;div style=&quot;&quot;&gt;&lt;span style=&quot;font-size: 14px;&quot;&gt;`positivescore` bigint&amp;nbsp;&lt;/span&gt;&lt;/div&gt;&lt;div style=&quot;&quot;&gt;&lt;span style=&quot;font-size: 14px;&quot;&gt;`score` bigint&amp;nbsp;&lt;/span&gt;&lt;/div&gt;&lt;div style=&quot;&quot;&gt;&lt;span style=&quot;font-size: 14px;&quot;&gt;`grade` string&lt;/span&gt;&lt;/div&gt;&lt;/div&gt;" style="align=left;strokeColor=none;fillColor=none;spacingLeft=4;fontSize=12;verticalAlign=top;resizable=0;rotatable=0;part=1;html=1;" parent="f_9CFisA3Khybv1ZAlu0-72" vertex="1">
          <mxGeometry y="50" width="240" height="960" as="geometry" />
        </mxCell>
        <mxCell id="f_9CFisA3Khybv1ZAlu0-77" value="rearc_usa_daily_test" style="swimlane;childLayout=stackLayout;horizontal=1;startSize=50;horizontalStack=0;rounded=1;fontSize=14;fontStyle=0;strokeWidth=2;resizeParent=0;resizeLast=1;shadow=0;dashed=0;align=center;arcSize=4;whiteSpace=wrap;html=1;" parent="1" vertex="1">
          <mxGeometry x="-360" y="10" width="230" height="480" as="geometry">
            <mxRectangle x="-1180" y="10" width="110" height="50" as="alternateBounds" />
          </mxGeometry>
        </mxCell>
        <mxCell id="gPCDaNOUCuoTdpbyUc8l-10" value="" style="endArrow=classic;html=1;rounded=0;entryX=1.005;entryY=0.228;entryDx=0;entryDy=0;entryPerimeter=0;" parent="f_9CFisA3Khybv1ZAlu0-77" target="f_9CFisA3Khybv1ZAlu0-73" edge="1">
          <mxGeometry width="50" height="50" relative="1" as="geometry">
            <mxPoint y="270" as="sourcePoint" />
            <mxPoint x="50" y="220" as="targetPoint" />
          </mxGeometry>
        </mxCell>
        <mxCell id="f_9CFisA3Khybv1ZAlu0-78" value="&lt;div style=&quot;font-size: 14px;&quot;&gt;&lt;div style=&quot;&quot;&gt;&lt;div&gt;`date` bigint&amp;nbsp;&lt;/div&gt;&lt;div&gt;`&lt;b&gt;states&lt;/b&gt;` bigint&amp;nbsp;&lt;/div&gt;&lt;div&gt;`positive` bigint&amp;nbsp;&lt;/div&gt;&lt;div&gt;`negative` bigint&amp;nbsp;&lt;/div&gt;&lt;div&gt;`pending` bigint&amp;nbsp;&lt;/div&gt;&lt;div&gt;`hospitalizedcurrently` bigint&amp;nbsp;&lt;/div&gt;&lt;div&gt;`hospitalizedcumulative` bigint&amp;nbsp;&lt;/div&gt;&lt;div&gt;`inicucurrently` bigint&amp;nbsp;&lt;/div&gt;&lt;div&gt;`inicucumulative` bigint&amp;nbsp;&lt;/div&gt;&lt;div&gt;`onventilatorcurrently` bigint&amp;nbsp;&lt;/div&gt;&lt;div&gt;`onventilatorcumulative` bigint&amp;nbsp;&lt;/div&gt;&lt;div&gt;`datechecked` string&amp;nbsp;&lt;/div&gt;&lt;div&gt;`death` bigint&amp;nbsp;&lt;/div&gt;&lt;div&gt;`hospitalized` bigint&amp;nbsp;&lt;/div&gt;&lt;div&gt;`totaltestresults` bigint&amp;nbsp;&lt;/div&gt;&lt;div&gt;`lastmodified` string&amp;nbsp;&lt;/div&gt;&lt;div&gt;`recovered` string&amp;nbsp;&lt;/div&gt;&lt;div&gt;`total` bigint&amp;nbsp;&lt;/div&gt;&lt;div&gt;`posneg` bigint&amp;nbsp;&lt;/div&gt;&lt;div&gt;`deathincrease` bigint&amp;nbsp;&lt;/div&gt;&lt;div&gt;`hospitalizedincrease` bigint&amp;nbsp;&lt;/div&gt;&lt;div&gt;`negativeincrease` bigint&amp;nbsp;&lt;/div&gt;&lt;div&gt;`positiveincrease` bigint&amp;nbsp;&lt;/div&gt;&lt;div&gt;`totaltestresultsincrease` bigint&amp;nbsp;&lt;/div&gt;&lt;div&gt;`hash` string&lt;/div&gt;&lt;/div&gt;&lt;/div&gt;" style="align=left;strokeColor=none;fillColor=none;spacingLeft=4;fontSize=12;verticalAlign=top;resizable=0;rotatable=0;part=1;html=1;" parent="f_9CFisA3Khybv1ZAlu0-77" vertex="1">
          <mxGeometry y="50" width="230" height="430" as="geometry" />
        </mxCell>
        <mxCell id="f_9CFisA3Khybv1ZAlu0-79" value="rearc_usa_hospital_beds" style="swimlane;childLayout=stackLayout;horizontal=1;startSize=50;horizontalStack=0;rounded=1;fontSize=14;fontStyle=0;strokeWidth=2;resizeParent=0;resizeLast=1;shadow=0;dashed=0;align=center;arcSize=4;whiteSpace=wrap;html=1;" parent="1" vertex="1">
          <mxGeometry x="-360" y="520" width="250" height="450" as="geometry">
            <mxRectangle x="-1180" y="10" width="110" height="50" as="alternateBounds" />
          </mxGeometry>
        </mxCell>
        <mxCell id="f_9CFisA3Khybv1ZAlu0-80" value="&lt;div style=&quot;font-size: 14px;&quot;&gt;&lt;div style=&quot;&quot;&gt;&lt;div&gt;`objectid` int&amp;nbsp;&amp;nbsp;&lt;/div&gt;&lt;div&gt;`hospital_name` string&amp;nbsp;&amp;nbsp;&lt;/div&gt;&lt;div&gt;`hospital_type` string&amp;nbsp;&amp;nbsp;&lt;/div&gt;&lt;div&gt;`hq_address` string&amp;nbsp;&amp;nbsp;&lt;/div&gt;&lt;div&gt;`hq_address1` string&amp;nbsp;&amp;nbsp;&lt;/div&gt;&lt;div&gt;`hq_city` string&amp;nbsp;&amp;nbsp;&lt;/div&gt;&lt;div&gt;`hq_state` string&amp;nbsp;&amp;nbsp;&lt;/div&gt;&lt;div&gt;`hq_zip_code` string&amp;nbsp;&amp;nbsp;&lt;/div&gt;&lt;div&gt;`county_name` string&amp;nbsp;&amp;nbsp;&lt;/div&gt;&lt;div&gt;`&lt;b&gt;state_name&lt;/b&gt;` string&amp;nbsp;&amp;nbsp;&lt;/div&gt;&lt;div&gt;`state_fips` string&amp;nbsp;&amp;nbsp;&lt;/div&gt;&lt;div&gt;`cnty_fips` string&amp;nbsp;&amp;nbsp;&lt;/div&gt;&lt;div&gt;`&lt;b&gt;fips&lt;/b&gt;` string&amp;nbsp;&amp;nbsp;&lt;/div&gt;&lt;div&gt;`num_licensed_beds` int&amp;nbsp;&amp;nbsp;&lt;/div&gt;&lt;div&gt;`num_staffed_beds` int&amp;nbsp;&amp;nbsp;&lt;/div&gt;&lt;div&gt;`num_icu_beds` int&amp;nbsp;&amp;nbsp;&lt;/div&gt;&lt;div&gt;`adult_icu_beds` int&amp;nbsp;&amp;nbsp;&lt;/div&gt;&lt;div&gt;`pedi_icu_beds` double&amp;nbsp;&amp;nbsp;&lt;/div&gt;&lt;div&gt;`bed_utilization` double&amp;nbsp;&amp;nbsp;&lt;/div&gt;&lt;div&gt;`avg_ventilator_usage` double&amp;nbsp;&amp;nbsp;&lt;/div&gt;&lt;div&gt;`potential_increase_in_bed_capac` int&amp;nbsp;&amp;nbsp;&lt;/div&gt;&lt;div&gt;`latitude` double&amp;nbsp;&amp;nbsp;&lt;/div&gt;&lt;div&gt;`longtitude` double&amp;nbsp;&lt;/div&gt;&lt;/div&gt;&lt;/div&gt;" style="align=left;strokeColor=none;fillColor=none;spacingLeft=4;fontSize=12;verticalAlign=top;resizable=0;rotatable=0;part=1;html=1;" parent="f_9CFisA3Khybv1ZAlu0-79" vertex="1">
          <mxGeometry y="50" width="250" height="400" as="geometry" />
        </mxCell>
        <mxCell id="f_9CFisA3Khybv1ZAlu0-81" value="static_country_codes" style="swimlane;childLayout=stackLayout;horizontal=1;startSize=50;horizontalStack=0;rounded=1;fontSize=14;fontStyle=0;strokeWidth=2;resizeParent=0;resizeLast=1;shadow=0;dashed=0;align=center;arcSize=4;whiteSpace=wrap;html=1;" parent="1" vertex="1">
          <mxGeometry x="-1160" y="570" width="160" height="160" as="geometry">
            <mxRectangle x="-1180" y="10" width="110" height="50" as="alternateBounds" />
          </mxGeometry>
        </mxCell>
        <mxCell id="f_9CFisA3Khybv1ZAlu0-82" value="&lt;div style=&quot;font-size: 14px;&quot;&gt;&lt;div style=&quot;&quot;&gt;&lt;div&gt;`&lt;b&gt;country&lt;/b&gt;` string&amp;nbsp;&lt;/div&gt;&lt;div&gt;`alpha-2 code` string&amp;nbsp;&lt;/div&gt;&lt;div&gt;`alpha-3 code` string&amp;nbsp;&lt;/div&gt;&lt;div&gt;`numeric code` bigint&amp;nbsp;&lt;/div&gt;&lt;div&gt;`latitude` double&amp;nbsp;&lt;/div&gt;&lt;div&gt;`longitude` double&lt;/div&gt;&lt;/div&gt;&lt;/div&gt;" style="align=left;strokeColor=none;fillColor=none;spacingLeft=4;fontSize=12;verticalAlign=top;resizable=0;rotatable=0;part=1;html=1;" parent="f_9CFisA3Khybv1ZAlu0-81" vertex="1">
          <mxGeometry y="50" width="160" height="110" as="geometry" />
        </mxCell>
        <mxCell id="f_9CFisA3Khybv1ZAlu0-84" value="rearc_usa_latest_total" style="swimlane;childLayout=stackLayout;horizontal=1;startSize=50;horizontalStack=0;rounded=1;fontSize=14;fontStyle=0;strokeWidth=2;resizeParent=0;resizeLast=1;shadow=0;dashed=0;align=center;arcSize=4;whiteSpace=wrap;html=1;" parent="1" vertex="1">
          <mxGeometry x="-370" y="1010" width="200" height="360" as="geometry">
            <mxRectangle x="-1180" y="10" width="110" height="50" as="alternateBounds" />
          </mxGeometry>
        </mxCell>
        <mxCell id="f_9CFisA3Khybv1ZAlu0-85" value="&lt;div style=&quot;font-size: 14px;&quot;&gt;&lt;div style=&quot;&quot;&gt;&lt;div&gt;`positive` bigint&amp;nbsp;&lt;/div&gt;&lt;div&gt;`negative` bigint&amp;nbsp;&lt;/div&gt;&lt;div&gt;`pending` bigint&amp;nbsp;&lt;/div&gt;&lt;div&gt;`hospitalizedcurrently` bigint&amp;nbsp;&lt;/div&gt;&lt;div&gt;`hospitalizedcumulative` bigint&amp;nbsp;&lt;/div&gt;&lt;div&gt;`inicucurrently` bigint&amp;nbsp;&lt;/div&gt;&lt;div&gt;`inicucumulative` bigint&amp;nbsp;&lt;/div&gt;&lt;div&gt;`onventilatorcurrently` bigint&amp;nbsp;&lt;/div&gt;&lt;div&gt;`onventilatorcumulative` bigint&amp;nbsp;&lt;/div&gt;&lt;div&gt;`recovered` bigint&amp;nbsp;&lt;/div&gt;&lt;div&gt;`hash` string&amp;nbsp;&lt;/div&gt;&lt;div&gt;`lastmodified` string&amp;nbsp;&lt;/div&gt;&lt;div&gt;`death` bigint&amp;nbsp;&lt;/div&gt;&lt;div&gt;`hospitalized` bigint&amp;nbsp;&lt;/div&gt;&lt;div&gt;`total` bigint&amp;nbsp;&lt;/div&gt;&lt;div&gt;`totaltestresults` bigint&amp;nbsp;&lt;/div&gt;&lt;div&gt;`posneg` bigint&amp;nbsp;&lt;/div&gt;&lt;div&gt;`notes` string&lt;/div&gt;&lt;/div&gt;&lt;/div&gt;" style="align=left;strokeColor=none;fillColor=none;spacingLeft=4;fontSize=12;verticalAlign=top;resizable=0;rotatable=0;part=1;html=1;" parent="f_9CFisA3Khybv1ZAlu0-84" vertex="1">
          <mxGeometry y="50" width="200" height="310" as="geometry" />
        </mxCell>
        <mxCell id="f_9CFisA3Khybv1ZAlu0-86" value="static_county_codes" style="swimlane;childLayout=stackLayout;horizontal=1;startSize=50;horizontalStack=0;rounded=1;fontSize=14;fontStyle=0;strokeWidth=2;resizeParent=0;resizeLast=1;shadow=0;dashed=0;align=center;arcSize=4;whiteSpace=wrap;html=1;" parent="1" vertex="1">
          <mxGeometry x="-1180" y="770" width="220" height="150" as="geometry">
            <mxRectangle x="-1180" y="10" width="110" height="50" as="alternateBounds" />
          </mxGeometry>
        </mxCell>
        <mxCell id="f_9CFisA3Khybv1ZAlu0-87" value="&lt;div style=&quot;font-size: 14px;&quot;&gt;&lt;div style=&quot;&quot;&gt;&lt;div&gt;`id` string&amp;nbsp;&lt;/div&gt;&lt;div&gt;`id2` bigint&amp;nbsp;&lt;/div&gt;&lt;div&gt;`&lt;b&gt;county&lt;/b&gt;` string&amp;nbsp;&lt;/div&gt;&lt;div&gt;`&lt;b&gt;state&lt;/b&gt;` string&amp;nbsp;&lt;/div&gt;&lt;div&gt;`population estimate 2018` bigint&lt;/div&gt;&lt;/div&gt;&lt;/div&gt;" style="align=left;strokeColor=none;fillColor=none;spacingLeft=4;fontSize=12;verticalAlign=top;resizable=0;rotatable=0;part=1;html=1;" parent="f_9CFisA3Khybv1ZAlu0-86" vertex="1">
          <mxGeometry y="50" width="220" height="100" as="geometry" />
        </mxCell>
        <mxCell id="gPCDaNOUCuoTdpbyUc8l-1" value="static_state_codes" style="swimlane;childLayout=stackLayout;horizontal=1;startSize=50;horizontalStack=0;rounded=1;fontSize=14;fontStyle=0;strokeWidth=2;resizeParent=0;resizeLast=1;shadow=0;dashed=0;align=center;arcSize=4;whiteSpace=wrap;html=1;" parent="1" vertex="1">
          <mxGeometry x="-1160" y="1000" width="160" height="110" as="geometry">
            <mxRectangle x="-1180" y="10" width="110" height="50" as="alternateBounds" />
          </mxGeometry>
        </mxCell>
        <mxCell id="gPCDaNOUCuoTdpbyUc8l-2" value="&lt;div style=&quot;font-size: 14px;&quot;&gt;&lt;font style=&quot;font-size: 14px;&quot;&gt;&amp;nbsp; `&lt;b&gt;State&lt;/b&gt;&#39; string&lt;/font&gt;&lt;/div&gt;&lt;div style=&quot;font-size: 14px;&quot;&gt;&lt;font style=&quot;font-size: 14px;&quot;&gt;&amp;nbsp; `Abbreviation&#39; string&lt;br&gt;&lt;/font&gt;&lt;/div&gt;" style="align=left;strokeColor=none;fillColor=none;spacingLeft=4;fontSize=12;verticalAlign=top;resizable=0;rotatable=0;part=1;html=1;" parent="gPCDaNOUCuoTdpbyUc8l-1" vertex="1">
          <mxGeometry y="50" width="160" height="60" as="geometry" />
        </mxCell>
        <mxCell id="gPCDaNOUCuoTdpbyUc8l-5" value="" style="edgeStyle=elbowEdgeStyle;elbow=vertical;endArrow=classic;html=1;curved=0;rounded=0;endSize=8;startSize=8;exitX=0.5;exitY=1;exitDx=0;exitDy=0;entryX=0.5;entryY=0;entryDx=0;entryDy=0;" parent="1" source="f_9CFisA3Khybv1ZAlu0-87" target="gPCDaNOUCuoTdpbyUc8l-1" edge="1">
          <mxGeometry width="50" height="50" relative="1" as="geometry">
            <mxPoint x="-1080" y="1000" as="sourcePoint" />
            <mxPoint x="-870" y="1000" as="targetPoint" />
          </mxGeometry>
        </mxCell>
        <mxCell id="gPCDaNOUCuoTdpbyUc8l-12" value="" style="edgeStyle=elbowEdgeStyle;elbow=horizontal;endArrow=classic;html=1;curved=0;rounded=0;endSize=8;startSize=8;entryX=0;entryY=0.4;entryDx=0;entryDy=0;entryPerimeter=0;" parent="1" target="f_9CFisA3Khybv1ZAlu0-80" edge="1">
          <mxGeometry width="50" height="50" relative="1" as="geometry">
            <mxPoint x="-430" y="550" as="sourcePoint" />
            <mxPoint x="-380" y="500" as="targetPoint" />
          </mxGeometry>
        </mxCell>
        <mxCell id="gPCDaNOUCuoTdpbyUc8l-15" value="" style="edgeStyle=elbowEdgeStyle;elbow=vertical;endArrow=classic;html=1;curved=0;rounded=0;endSize=8;startSize=8;" parent="1" edge="1">
          <mxGeometry width="50" height="50" relative="1" as="geometry">
            <mxPoint x="-559" y="1020" as="sourcePoint" />
            <mxPoint x="-370" y="1140" as="targetPoint" />
            <Array as="points">
              <mxPoint x="-440" y="1140" />
              <mxPoint x="-490" y="1140" />
              <mxPoint x="-510" y="1190" />
            </Array>
          </mxGeometry>
        </mxCell>
        <mxCell id="gPCDaNOUCuoTdpbyUc8l-19" value="" style="endArrow=classic;html=1;rounded=0;exitX=0.5;exitY=0;exitDx=0;exitDy=0;" parent="1" source="f_9CFisA3Khybv1ZAlu0-60" target="f_9CFisA3Khybv1ZAlu0-57" edge="1">
          <mxGeometry width="50" height="50" relative="1" as="geometry">
            <mxPoint x="-800" y="440" as="sourcePoint" />
            <mxPoint x="-750" y="390" as="targetPoint" />
          </mxGeometry>
        </mxCell>
        <mxCell id="gPCDaNOUCuoTdpbyUc8l-20" value="" style="edgeStyle=elbowEdgeStyle;elbow=horizontal;endArrow=classic;html=1;curved=0;rounded=0;endSize=8;startSize=8;exitX=1;exitY=0.5;exitDx=0;exitDy=0;entryX=0;entryY=0.5;entryDx=0;entryDy=0;" parent="1" source="f_9CFisA3Khybv1ZAlu0-87" target="f_9CFisA3Khybv1ZAlu0-61" edge="1">
          <mxGeometry width="50" height="50" relative="1" as="geometry">
            <mxPoint x="-800" y="450" as="sourcePoint" />
            <mxPoint x="-810" y="500" as="targetPoint" />
          </mxGeometry>
        </mxCell>
        <mxCell id="gPCDaNOUCuoTdpbyUc8l-23" value="" style="edgeStyle=elbowEdgeStyle;elbow=horizontal;endArrow=classic;html=1;curved=0;rounded=0;endSize=8;startSize=8;" parent="1" target="f_9CFisA3Khybv1ZAlu0-82" edge="1">
          <mxGeometry width="50" height="50" relative="1" as="geometry">
            <mxPoint x="-900" y="660" as="sourcePoint" />
            <mxPoint x="-950" y="610" as="targetPoint" />
          </mxGeometry>
        </mxCell>
        <mxCell id="gPCDaNOUCuoTdpbyUc8l-27" value="" style="edgeStyle=elbowEdgeStyle;elbow=horizontal;endArrow=classic;html=1;curved=0;rounded=0;endSize=8;startSize=8;entryX=1;entryY=0.5;entryDx=0;entryDy=0;exitX=1;exitY=0.5;exitDx=0;exitDy=0;" parent="1" source="f_9CFisA3Khybv1ZAlu0-57" target="f_9CFisA3Khybv1ZAlu0-53" edge="1">
          <mxGeometry width="50" height="50" relative="1" as="geometry">
            <mxPoint x="-710" y="110" as="sourcePoint" />
            <mxPoint x="-630" y="610" as="targetPoint" />
            <Array as="points">
              <mxPoint x="-700" y="260" />
            </Array>
          </mxGeometry>
        </mxCell>
        <mxCell id="gPCDaNOUCuoTdpbyUc8l-30" value="" style="edgeStyle=segmentEdgeStyle;endArrow=classic;html=1;curved=0;rounded=0;endSize=8;startSize=8;exitX=0.44;exitY=1.006;exitDx=0;exitDy=0;exitPerimeter=0;entryX=-0.018;entryY=0.887;entryDx=0;entryDy=0;entryPerimeter=0;" parent="1" source="f_9CFisA3Khybv1ZAlu0-53" target="f_9CFisA3Khybv1ZAlu0-73" edge="1">
          <mxGeometry width="50" height="50" relative="1" as="geometry">
            <mxPoint x="-845.03" y="919.94" as="sourcePoint" />
            <mxPoint x="-840" y="1040" as="targetPoint" />
            <Array as="points">
              <mxPoint x="-830" y="911" />
            </Array>
          </mxGeometry>
        </mxCell>
        <mxCell id="XRD5tDuhOSVvlcQ2MFiT-1" value="" style="edgeStyle=elbowEdgeStyle;elbow=vertical;endArrow=classic;html=1;curved=0;rounded=0;endSize=8;startSize=8;entryX=0.5;entryY=1;entryDx=0;entryDy=0;" parent="1" target="gPCDaNOUCuoTdpbyUc8l-2" edge="1">
          <mxGeometry width="50" height="50" relative="1" as="geometry">
            <mxPoint x="-40" y="270" as="sourcePoint" />
            <mxPoint x="-840" y="1169" as="targetPoint" />
            <Array as="points">
              <mxPoint x="-580" y="1530" />
            </Array>
          </mxGeometry>
        </mxCell>
        <mxCell id="XRD5tDuhOSVvlcQ2MFiT-2" value="" style="endArrow=none;html=1;rounded=0;exitX=1;exitY=0.5;exitDx=0;exitDy=0;" parent="1" source="f_9CFisA3Khybv1ZAlu0-78" edge="1">
          <mxGeometry width="50" height="50" relative="1" as="geometry">
            <mxPoint x="-170" y="820" as="sourcePoint" />
            <mxPoint x="-40" y="275" as="targetPoint" />
          </mxGeometry>
        </mxCell>
        <mxCell id="XRD5tDuhOSVvlcQ2MFiT-3" value="" style="edgeStyle=elbowEdgeStyle;elbow=vertical;endArrow=classic;html=1;curved=0;rounded=0;endSize=8;startSize=8;exitX=1;exitY=1;exitDx=0;exitDy=0;entryX=0.75;entryY=1;entryDx=0;entryDy=0;" parent="1" source="f_9CFisA3Khybv1ZAlu0-80" target="gPCDaNOUCuoTdpbyUc8l-2" edge="1">
          <mxGeometry width="50" height="50" relative="1" as="geometry">
            <mxPoint x="-760" y="1450" as="sourcePoint" />
            <mxPoint x="-710" y="1400" as="targetPoint" />
            <Array as="points">
              <mxPoint x="-400" y="1460" />
            </Array>
          </mxGeometry>
        </mxCell>
        <mxCell id="XRD5tDuhOSVvlcQ2MFiT-5" value="" style="edgeStyle=elbowEdgeStyle;elbow=vertical;endArrow=classic;html=1;curved=0;rounded=0;endSize=8;startSize=8;exitX=0.25;exitY=1;exitDx=0;exitDy=0;entryX=1;entryY=1;entryDx=0;entryDy=0;" parent="1" source="f_9CFisA3Khybv1ZAlu0-73" target="gPCDaNOUCuoTdpbyUc8l-2" edge="1">
          <mxGeometry width="50" height="50" relative="1" as="geometry">
            <mxPoint x="-100" y="980" as="sourcePoint" />
            <mxPoint x="-1030" y="1120" as="targetPoint" />
            <Array as="points">
              <mxPoint x="-550" y="1420" />
            </Array>
          </mxGeometry>
        </mxCell>
        <mxCell id="z0Y3Gz3MLYSlpO9N0Ybb-1" value="" style="edgeStyle=elbowEdgeStyle;elbow=vertical;endArrow=classic;html=1;curved=0;rounded=0;endSize=8;startSize=8;exitX=0.863;exitY=1.002;exitDx=0;exitDy=0;entryX=0.25;entryY=1;entryDx=0;entryDy=0;exitPerimeter=0;" edge="1" parent="1" source="f_9CFisA3Khybv1ZAlu0-80" target="f_9CFisA3Khybv1ZAlu0-53">
          <mxGeometry width="50" height="50" relative="1" as="geometry">
            <mxPoint x="-100" y="980" as="sourcePoint" />
            <mxPoint x="-1030" y="1120" as="targetPoint" />
            <Array as="points">
              <mxPoint x="-570" y="1430" />
            </Array>
          </mxGeometry>
        </mxCell>
      </root>
    </mxGraphModel>
  </diagram>
</mxfile>
